<?xml version="1.0" standalone="no"?>
<!DOCTYPE svg PUBLIC "-//W3C//DTD SVG 20010904//EN"
 "http://www.w3.org/TR/2001/REC-SVG-20010904/DTD/svg10.dtd">
<svg version="1.0" xmlns="http://www.w3.org/2000/svg"
 width="90px" height="90px" viewBox="0 0 500.000000 500.000000"
 preserveAspectRatio="xMidYMid meet">

<g transform="translate(0.000000,500.000000) scale(0.100000,-0.100000)"
fill="#fff" stroke="none">
<path d="M2504 4433 c-372 -446 -580 -817 -665 -1183 -26 -109 -36 -332 -20
-425 30 -171 87 -281 211 -405 102 -102 194 -159 334 -205 125 -42 206 -53
234 -33 20 13 16 17 -71 59 -114 55 -204 138 -244 225 -38 83 -43 199 -14 314
55 220 221 463 508 747 l154 152 -102 223 c-56 123 -114 250 -129 283 -15 33
-51 112 -80 175 -28 63 -56 119 -60 123 -4 5 -30 -18 -56 -50z"/>
<path d="M2827 3453 c-161 -163 -228 -242 -312 -367 -219 -329 -187 -573 96
-738 59 -35 119 -50 119 -29 0 5 -18 28 -41 52 -23 24 -52 66 -66 93 -22 44
-25 59 -21 130 3 68 10 91 39 146 69 131 237 276 434 376 61 31 112 58 115 60
5 6 -202 424 -210 424 -4 0 -72 -66 -153 -147z"/>
<path d="M3024 2933 c-44 -4 -84 -34 -140 -108 -27 -34 -64 -97 -64 -107 0 -2
107 -3 238 -4 182 0 258 -4 327 -17 120 -24 193 -59 211 -103 19 -44 8 -70
-55 -126 -179 -161 -760 -339 -1366 -419 -219 -29 -650 -32 -780 -5 -141 28
-217 87 -200 154 17 67 153 162 345 239 58 24 101 43 95 43 -5 0 -53 -11 -105
-24 -335 -86 -550 -225 -550 -356 0 -86 100 -171 265 -225 571 -185 1764 -41
2482 300 364 173 525 351 460 508 -52 122 -292 215 -642 247 -103 9 -429 11
-521 3z"/>
<path d="M909 1433 c-1 -5 0 -23 1 -40 1 -27 -3 -35 -25 -43 -14 -5 -36 -10
-48 -10 -34 0 -121 -44 -151 -76 -44 -47 -59 -91 -59 -174 1 -146 69 -224 223
-255 l55 -11 3 -42 3 -42 65 0 64 0 0 44 0 43 51 7 c97 13 182 72 213 148 20
47 21 167 2 212 -33 80 -110 132 -223 151 l-43 7 0 44 0 44 -65 0 c-36 0 -65
-3 -66 -7z m-2 -345 l-2 -143 -29 3 c-67 7 -106 60 -106 142 0 85 43 139 112
140 l28 0 -3 -142z m230 109 c31 -29 37 -41 41 -89 6 -76 -18 -124 -72 -149
-68 -31 -66 -34 -66 126 l0 145 30 0 c20 0 42 -11 67 -33z"/>
<path d="M2137 1416 c-78 -32 -102 -50 -138 -99 -63 -86 -87 -188 -69 -299 28
-185 153 -287 337 -276 58 4 82 11 119 34 71 44 74 54 29 107 l-37 45 -35 -23
c-90 -62 -186 -38 -235 58 -27 53 -30 183 -5 237 46 103 164 138 241 71 17
-15 20 -13 57 28 21 24 39 47 39 52 0 15 -65 57 -113 73 -66 22 -122 20 -190
-8z"/>
<path d="M1372 1423 c-21 -3 -32 -9 -29 -16 3 -7 53 -116 112 -244 74 -161
105 -238 100 -253 -7 -21 -36 -32 -88 -34 -29 -1 -31 -4 -43 -61 -6 -33 -10
-63 -7 -67 2 -5 32 -8 66 -8 79 0 141 29 180 85 26 39 250 585 243 593 -9 8
-137 5 -145 -3 -5 -6 -34 -82 -64 -170 -30 -87 -59 -161 -64 -162 -6 -2 -14 9
-18 24 -9 40 -106 296 -114 305 -9 10 -88 17 -129 11z"/>
<path d="M2609 1423 l-26 -4 -6 -217 c-8 -268 -9 -400 -1 -429 6 -22 12 -23
88 -23 l81 1 103 207 c56 114 106 219 112 235 5 15 15 27 21 27 7 0 9 -10 4
-27 -3 -16 -9 -121 -12 -235 l-5 -208 76 0 76 0 0 334 0 334 -46 4 c-25 2 -64
2 -86 0 l-40 -4 -116 -234 c-63 -129 -117 -232 -119 -230 -3 2 0 53 6 112 6
59 11 162 11 229 l0 123 -31 6 c-32 6 -44 6 -90 -1z"/>
<path d="M3257 1423 c-4 -3 -7 -156 -7 -340 l0 -333 81 0 80 0 -2 138 -2 137
116 3 117 3 0 -141 0 -140 75 0 75 0 0 334 0 335 -42 6 c-24 3 -54 4 -68 1
-14 -2 -28 -5 -32 -5 -4 -1 -9 -58 -10 -128 l-3 -128 -110 0 -110 0 -3 127 -3
126 -31 6 c-40 8 -113 8 -121 -1z"/>
<path d="M3933 1424 c-10 -4 -13 -82 -13 -340 l0 -334 155 0 c131 0 162 3 207
20 103 40 143 100 136 209 -7 133 -76 188 -248 200 l-95 6 -5 120 -5 120 -60
2 c-33 1 -66 -1 -72 -3z m265 -370 c48 -10 72 -38 72 -85 0 -69 -57 -105 -155
-97 l-40 3 -3 79 c-2 44 -1 85 2 93 6 14 70 18 124 7z"/>
</g>
</svg>
